<?xml version="1.0" standalone="no"?>
<!DOCTYPE svg PUBLIC "-//W3C//DTD SVG 20010904//EN"
 "http://www.w3.org/TR/2001/REC-SVG-20010904/DTD/svg10.dtd">
<svg version="1.0" xmlns="http://www.w3.org/2000/svg"
 width="96.000000pt" height="86.000000pt" viewBox="0 0 96.000000 86.000000"
 preserveAspectRatio="xMidYMid meet">

<g transform="translate(0.000000,86.000000) scale(0.100000,-0.100000)"
fill="#000000" stroke="none">
<path d="M120 627 c-57 -94 -105 -175 -107 -179 -2 -5 33 -8 79 -8 l83 1 64
111 64 112 -28 51 c-53 96 -40 103 -155 -88z"/>
<path d="M755 459 l-30 -19 78 0 c50 0 88 5 107 15 17 9 30 18 30 20 0 3 -35
5 -77 4 -59 0 -85 -5 -108 -20z"/>
<path d="M462 363 c-153 -264 -181 -312 -191 -331 l-12 -22 240 0 239 0 102
178 c57 97 105 180 107 185 2 4 -33 7 -79 7 l-83 -1 -65 -114 -65 -115 -74 0
c-59 0 -72 3 -68 14 3 8 37 69 76 136 39 66 71 123 71 125 0 3 -36 5 -80 5
l-79 0 -39 -67z"/>
</g>
</svg>
