<?xml version="1.0" encoding="UTF-8"?><svg id="a" xmlns="http://www.w3.org/2000/svg" viewBox="0 0 96.1 85.6"><defs><style>.b{fill:#9581bb;}.c{fill:#5b547b;}</style></defs><g><path class="b" d="M79,37.7h17l-1.7-3h0l-11.9-20.6L74.2,0H25.6l.6,1,.9,1.5,3.3,5.8,3.7,6.4c5.3,9.3,10.6,18.6,15.9,27.9h16.9c-1.4-2.6-2.8-5.3-4.3-7.9l-11.5-20h14.6l13.3,23Z"/><path class="b" d="M22.1,80.2l.3-.5,5.1-8.9h0c1-1.7,2-3.4,2.9-5.1l-6.6-11.4c-2.3-3.9-4.5-7.9-6.7-11.8H0l22,37.7Z"/><path class="b" d="M78.9,47.3c-1.3-.8-2.6-1.7-4-2.5-1.4-.8-2.7-1.6-4-2.3h16.9l8.2,4.8h-17Z"/></g><g><path class="c" d="M95.8,47.3l-13.6,23.6-1.4,2.5-7,12.2H25.1l3.4-5.8,5.1-8.9h0c5.5-9.4,10.9-18.8,16.4-28.3h16.9l-1.5,2.7-1,1.7-9.7,16.7-4.1,7.2h14.6l1.6-2.8,12-20.8h17Z"/><path class="c" d="M17.1,42.5H0L22.5,5.2l1.8,3.1,6.1,10.7,.2,.3c-4.5,7.7-9,15.5-13.5,23.2Z"/><path class="c" d="M96,37.6s-5.6,3.3-8.3,4.9h-16.9c2.7-1.6,5.5-3.3,8.3-4.9h16.9Z"/></g></svg>